<svg width="21" height="21" viewBox="0 0 21 21" fill="none" xmlns="http://www.w3.org/2000/svg">
<g clip-path="url(#clip0_2_85)">
<path d="M8.32845 5.35706C8.39712 5.10094 8.5647 4.88258 8.79434 4.75C9.02398 4.61742 9.29687 4.58147 9.55301 4.65006L15.7001 6.29717C15.9562 6.36584 16.1746 6.53342 16.3072 6.76306C16.4398 6.9927 16.4757 7.2656 16.4071 7.52173L14.76 13.6688C14.6878 13.9209 14.5194 14.1345 14.2912 14.2636C14.063 14.3927 13.7932 14.4271 13.5399 14.3592C13.2866 14.2913 13.0702 14.1267 12.9371 13.9008C12.804 13.6749 12.765 13.4057 12.8285 13.1513L13.7763 9.37898L5.54904 14.129C5.31936 14.2616 5.0464 14.2975 4.79022 14.2289C4.53404 14.1602 4.31562 13.9926 4.18301 13.763C4.05041 13.5333 4.01447 13.2603 4.08311 13.0041C4.15176 12.748 4.31936 12.5295 4.54904 12.3969L12.7763 7.64693L9.03545 6.58162C8.77933 6.51295 8.56097 6.34537 8.42839 6.11573C8.29581 5.88609 8.25986 5.6132 8.32845 5.35706Z" fill="#F2F2F2"/>
</g>
<defs>
<clipPath id="clip0_2_85">
<rect width="15" height="15" fill="white" transform="translate(0 7.5) rotate(-30)"/>
</clipPath>
</defs>
</svg>
