<svg width="24" height="24" viewBox="0 0 24 24" fill="none" xmlns="http://www.w3.org/2000/svg">
<path d="M7.16634 6.66653C7.16634 5.95932 7.44727 5.28108 7.94735 4.78101C8.44742 4.28094 9.12566 4 9.83287 4H15.1667C15.8741 4 16.5524 4.28098 17.0525 4.78113C17.5527 5.28127 17.8337 5.95962 17.8337 6.66693C17.8337 7.37425 17.5527 8.05259 17.0525 8.55274C16.5524 9.05289 15.8741 9.33387 15.1667 9.33387H12.5002V17.3343C12.5 17.8616 12.3435 18.377 12.0505 18.8154C11.7574 19.2538 11.341 19.5955 10.8537 19.7972C10.3665 19.9989 9.83044 20.0516 9.31326 19.9487C8.79608 19.8458 8.32102 19.5919 7.94815 19.219C7.57527 18.8461 7.32133 18.3711 7.21841 17.8539C7.1155 17.3367 7.16824 16.8006 7.36996 16.3134C7.57169 15.8262 7.91334 15.4097 8.35172 15.1167C8.79011 14.8236 9.30555 14.6671 9.83287 14.6669C9.12566 14.6669 8.44742 14.386 7.94735 13.8859C7.44727 13.3859 7.16634 12.7076 7.16634 12.0004C7.16634 11.2932 7.44727 10.6149 7.94735 10.1149C8.44742 9.6148 9.12566 9.33387 9.83287 9.33387C9.48263 9.33387 9.13582 9.26487 8.81225 9.13081C8.48868 8.99676 8.19468 8.80027 7.94706 8.55257C7.69944 8.30488 7.50304 8.01083 7.36908 7.68722C7.23513 7.36361 7.16623 7.01677 7.16634 6.66653ZM12.5002 12.0004C12.5002 12.7076 12.7811 13.3859 13.2812 13.8859C13.7813 14.386 14.4595 14.6669 15.1667 14.6669C15.8739 14.6669 16.5522 14.386 17.0523 13.8859C17.5523 13.3859 17.8333 12.7076 17.8333 12.0004C17.8333 11.2932 17.5523 10.6149 17.0523 10.1149C16.5522 9.6148 15.8739 9.33387 15.1667 9.33387C14.4595 9.33387 13.7813 9.6148 13.2812 10.1149C12.7811 10.6149 12.5002 11.2932 12.5002 12.0004Z" fill="black"/>
</svg>
