<svg width="24" height="24" viewBox="0 0 24 24" fill="none" xmlns="http://www.w3.org/2000/svg">
<path d="M19.6974 11.2866L12.7113 4.30131C12.5177 4.10835 12.2554 4 11.982 4C11.7086 4 11.4464 4.10835 11.2527 4.30131L9.80534 5.75131L11.6453 7.59131C11.8624 7.51777 12.0958 7.50659 12.3189 7.55904C12.542 7.61148 12.746 7.72546 12.9076 7.88802C13.0691 8.05057 13.1819 8.25519 13.233 8.47862C13.2841 8.70205 13.2715 8.93534 13.1967 9.15198L14.9687 10.9253C15.2309 10.8341 15.5164 10.8347 15.7783 10.927C16.0401 11.0192 16.2629 11.1977 16.4101 11.4331C16.5573 11.6685 16.6202 11.947 16.5884 12.2228C16.5567 12.4986 16.4322 12.7555 16.2354 12.9513C16.1216 13.0652 15.9865 13.1556 15.8378 13.2173C15.6891 13.279 15.5297 13.3107 15.3687 13.3107C15.2077 13.3107 15.0483 13.279 14.8996 13.2173C14.7509 13.1556 14.6158 13.0652 14.502 12.9513C14.3319 12.7802 14.2157 12.5629 14.1678 12.3264C14.1199 12.0898 14.1425 11.8445 14.2327 11.6206L12.5733 9.96998V14.32C12.6907 14.3773 12.8013 14.4553 12.8987 14.552C13.1267 14.7828 13.2545 15.0942 13.2545 15.4186C13.2545 15.7431 13.1267 16.0545 12.8987 16.2853C12.7845 16.3996 12.6489 16.4902 12.4997 16.5521C12.3505 16.6139 12.1905 16.6458 12.029 16.6458C11.8675 16.6458 11.7075 16.6139 11.5583 16.5521C11.4091 16.4902 11.2735 16.3996 11.1593 16.2853C11.0454 16.1717 10.955 16.0368 10.8932 15.8881C10.8315 15.7395 10.7998 15.5802 10.7998 15.4193C10.7998 15.2584 10.8315 15.0991 10.8932 14.9505C10.955 14.8019 11.0454 14.6669 11.1593 14.5533C11.2807 14.4333 11.4173 14.3426 11.5627 14.2826V9.88998C11.413 9.8288 11.277 9.73854 11.1624 9.62444C11.0479 9.51033 10.9571 9.37464 10.8954 9.22522C10.8336 9.0758 10.8021 8.91561 10.8027 8.75394C10.8032 8.59226 10.8359 8.4323 10.8987 8.28331L9.09068 6.46665L4.3 11.254C3.9 11.6573 3.9 12.31 4.3 12.7133L11.2867 19.698C11.3823 19.7937 11.4959 19.8697 11.621 19.9215C11.746 19.9733 11.88 20 12.0153 20C12.1507 20 12.2847 19.9733 12.4097 19.9215C12.5348 19.8697 12.6484 19.7937 12.744 19.698L19.6974 12.7446C19.7933 12.649 19.8694 12.5354 19.9213 12.4103C19.9733 12.2852 20 12.1511 20 12.0156C20 11.8802 19.9733 11.7461 19.9213 11.621C19.8694 11.4959 19.7933 11.3823 19.6974 11.2866Z" fill="#13F2F2"/>
</svg>
