<svg width="29" height="29" viewBox="0 0 29 29" fill="none" xmlns="http://www.w3.org/2000/svg">
<path fill-rule="evenodd" clip-rule="evenodd" d="M14.5 2.91666C11.2182 2.91666 10.8073 2.93116 9.51805 2.98916C8.23238 3.04836 7.35392 3.25257 6.58542 3.55103C5.77883 3.8541 5.0481 4.32957 4.44425 4.94424C3.82958 5.54808 3.35412 6.27881 3.05105 7.08541C2.75259 7.85391 2.54838 8.73236 2.48917 10.018C2.42996 11.3073 2.41667 11.7182 2.41667 15C2.41667 18.2818 2.42996 18.6927 2.48917 19.9819C2.54838 21.2676 2.75259 22.1461 3.05105 22.9146C3.35412 23.7212 3.82958 24.4519 4.44425 25.0557C5.0481 25.6704 5.77883 26.1459 6.58542 26.4489C7.35392 26.7474 8.23238 26.9516 9.51805 27.0108C10.8073 27.0688 11.2182 27.0833 14.5 27.0833C17.7818 27.0833 18.1927 27.0688 19.482 27.0108C20.7676 26.9516 21.6461 26.7474 22.4146 26.4489C23.2212 26.1459 23.9519 25.6704 24.5558 25.0557C25.1704 24.4519 25.6459 23.7212 25.949 22.9146C26.2474 22.1461 26.4516 21.2676 26.5108 19.9819C26.5688 18.6927 26.5833 18.2818 26.5833 15C26.5833 11.7182 26.5688 11.3073 26.5108 10.018C26.4516 8.73236 26.2474 7.85391 25.949 7.08541C25.6459 6.27881 25.1704 5.54808 24.5558 4.94424C23.9519 4.32957 23.2212 3.8541 22.4146 3.55103C21.6461 3.25257 20.7676 3.04836 19.482 2.98916C18.1927 2.93116 17.7818 2.91666 14.5 2.91666ZM14.5 5.09407C17.7263 5.09407 18.1081 5.10616 19.3817 5.16416C20.561 5.21853 21.2002 5.41428 21.6268 5.57982C22.1898 5.79974 22.5934 6.06195 23.0163 6.48366C23.4393 6.90657 23.7003 7.31016 23.9202 7.87324C24.0845 8.29978 24.2827 8.93899 24.3358 10.1171C24.3938 11.3919 24.4059 11.7725 24.4059 15C24.4059 18.2262 24.3938 18.6081 24.3358 19.8817C24.2815 21.061 24.0845 21.7002 23.9202 22.1267C23.7264 22.6516 23.4176 23.1264 23.0163 23.5163C22.5934 23.9392 22.1898 24.2002 21.6268 24.4202C21.2002 24.5845 20.561 24.7827 19.3829 24.8358C18.1093 24.8938 17.7275 24.9059 14.5 24.9059C11.2738 24.9059 10.8907 24.8938 9.61834 24.8358C8.439 24.7814 7.7998 24.5845 7.37326 24.4202C6.84837 24.2264 6.37355 23.9176 5.98367 23.5163C5.5824 23.1264 5.27356 22.6516 5.07984 22.1267C4.9143 21.7002 4.71734 21.061 4.66417 19.8829C4.60617 18.6081 4.59409 18.2274 4.59409 15C4.59409 11.7737 4.60617 11.3919 4.66417 10.1183C4.71855 8.93899 4.9143 8.29978 5.07984 7.87324C5.29975 7.31016 5.56196 6.90657 5.98367 6.48366C6.40659 6.06074 6.81017 5.79974 7.37326 5.57982C7.7998 5.41428 8.439 5.21732 9.61713 5.16416C10.8919 5.10616 11.2725 5.09407 14.5 5.09407ZM14.5 19.0274C13.4319 19.0274 12.4075 18.6031 11.6522 17.8478C10.8969 17.0925 10.4726 16.0681 10.4726 15C10.4726 13.9319 10.8969 12.9075 11.6522 12.1522C12.4075 11.3969 13.4319 10.9726 14.5 10.9726C15.5681 10.9726 16.5925 11.3969 17.3478 12.1522C18.1031 12.9075 18.5274 13.9319 18.5274 15C18.5274 16.0681 18.1031 17.0925 17.3478 17.8478C16.5925 18.6031 15.5681 19.0274 14.5 19.0274ZM14.5 8.7952C13.6852 8.7952 12.8783 8.95569 12.1255 9.26751C11.3727 9.57933 10.6887 10.0364 10.1126 10.6125C9.53639 11.1887 9.07934 11.8727 8.76752 12.6255C8.4557 13.3783 8.29521 14.1852 8.29521 15C8.29521 15.8148 8.4557 16.6217 8.76752 17.3745C9.07934 18.1273 9.53639 18.8113 10.1126 19.3874C10.6887 19.9636 11.3727 20.4206 12.1255 20.7325C12.8783 21.0443 13.6852 21.2048 14.5 21.2048C16.1456 21.2048 17.7238 20.5511 18.8875 19.3874C20.0511 18.2238 20.7048 16.6456 20.7048 15C20.7048 13.3544 20.0511 11.7762 18.8875 10.6125C17.7238 9.44892 16.1456 8.7952 14.5 8.7952ZM22.4001 8.54991C22.4001 8.74032 22.3626 8.92887 22.2897 9.1048C22.2168 9.28072 22.11 9.44057 21.9754 9.57521C21.8407 9.70986 21.6809 9.81666 21.505 9.88953C21.3291 9.9624 21.1405 9.99991 20.9501 9.99991C20.7597 9.99991 20.5711 9.9624 20.3952 9.88953C20.2193 9.81666 20.0594 9.70986 19.9248 9.57521C19.7901 9.44057 19.6833 9.28072 19.6105 9.1048C19.5376 8.92887 19.5001 8.74032 19.5001 8.54991C19.5001 8.16534 19.6529 7.79653 19.9248 7.5246C20.1967 7.25267 20.5655 7.09991 20.9501 7.09991C21.3347 7.09991 21.7035 7.25267 21.9754 7.5246C22.2473 7.79653 22.4001 8.16534 22.4001 8.54991Z" fill="#9A9A9A"/>
</svg>
