<svg width="32" height="32" viewBox="0 0 32 32" fill="none" xmlns="http://www.w3.org/2000/svg">
<path d="M24.5867 4.07999H7.41334C6.53004 4.08245 5.68362 4.43443 5.05903 5.05902C4.43445 5.68361 4.08246 6.53002 4.08 7.41332V24.5867C4.08246 25.47 4.43445 26.3164 5.05903 26.941C5.68362 27.5655 6.53004 27.9175 7.41334 27.92H24.5867C25.4707 27.92 26.3186 27.5688 26.9437 26.9437C27.5688 26.3186 27.92 25.4707 27.92 24.5867V7.41332C27.92 6.52926 27.5688 5.68142 26.9437 5.0563C26.3186 4.43118 25.4707 4.07999 24.5867 4.07999ZM26.5867 24.5867C26.5832 25.116 26.3713 25.6227 25.997 25.997C25.6227 26.3713 25.116 26.5832 24.5867 26.5867H7.41334C6.88398 26.5832 6.3773 26.3713 6.00298 25.997C5.62867 25.6227 5.41683 25.116 5.41334 24.5867V7.41332C5.41683 6.88397 5.62867 6.37729 6.00298 6.00297C6.3773 5.62865 6.88398 5.41681 7.41334 5.41332H24.5867C25.116 5.41681 25.6227 5.62865 25.997 6.00297C26.3713 6.37729 26.5832 6.88397 26.5867 7.41332V24.5867Z" fill="#9A9A9A"/>
<path d="M8.50133 14.3307C8.50133 13.9771 8.6418 13.6379 8.89185 13.3879C9.1419 13.1378 9.48104 12.9973 9.83466 12.9973C10.1883 12.9973 10.5274 13.1378 10.7775 13.3879C11.0275 13.6379 11.168 13.9771 11.168 14.3307V22.9973C11.168 23.351 11.0275 23.6901 10.7775 23.9402C10.5274 24.1902 10.1883 24.3307 9.83466 24.3307C9.48104 24.3307 9.1419 24.1902 8.89185 23.9402C8.6418 23.6901 8.50133 23.351 8.50133 22.9973V14.3307Z" fill="#9A9A9A"/>
<path d="M9.83466 10.3253C10.571 10.3253 11.168 9.72837 11.168 8.99199C11.168 8.25561 10.571 7.65866 9.83466 7.65866C9.09828 7.65866 8.50133 8.25561 8.50133 8.99199C8.50133 9.72837 9.09828 10.3253 9.83466 10.3253Z" fill="#9A9A9A"/>
<path d="M23.4933 17.8267V23C23.4933 23.3536 23.3529 23.6928 23.1028 23.9428C22.8528 24.1929 22.5136 24.3333 22.16 24.3333C21.8064 24.3333 21.4672 24.1929 21.2172 23.9428C20.9671 23.6928 20.8267 23.3536 20.8267 23V17.8267C20.8267 17.2556 20.5998 16.7079 20.196 16.304C19.7921 15.9002 19.2444 15.6733 18.6733 15.6733C18.1022 15.6733 17.5545 15.9002 17.1507 16.304C16.7469 16.7079 16.52 17.2556 16.52 17.8267V23C16.52 23.3536 16.3795 23.6928 16.1295 23.9428C15.8794 24.1929 15.5403 24.3333 15.1867 24.3333C14.833 24.3333 14.4939 24.1929 14.2439 23.9428C13.9938 23.6928 13.8533 23.3536 13.8533 23V14.3333C13.8588 13.9814 14.0011 13.6455 14.2499 13.3966C14.4988 13.1478 14.8348 13.0055 15.1867 13C15.4125 12.9938 15.6358 13.0488 15.833 13.1591C16.0301 13.2694 16.1938 13.431 16.3067 13.6267C17.0398 13.2112 17.8692 12.9954 18.7119 13.001C19.5546 13.0066 20.3811 13.2333 21.1087 13.6585C21.8363 14.0837 22.4394 14.6925 22.8579 15.424C23.2764 16.1554 23.4955 16.984 23.4933 17.8267Z" fill="#9A9A9A"/>
</svg>
