<svg width="16" height="16" viewBox="0 0 16 16" fill="none" xmlns="http://www.w3.org/2000/svg">
<g clip-path="url(#clip0_2_29)">
<path d="M12.25 0H3.75C1.67893 0 0 1.67893 0 3.75V12.25C0 14.3211 1.67893 16 3.75 16H12.25C14.3211 16 16 14.3211 16 12.25V3.75C16 1.67893 14.3211 0 12.25 0Z" fill="black"/>
<mask id="mask0_2_29" style="mask-type:luminance" maskUnits="userSpaceOnUse" x="1" y="3" width="14" height="10">
<path d="M1.75 3.3125H14.25V12.6818H1.75V3.3125Z" fill="white"/>
</mask>
<g mask="url(#mask0_2_29)">
<path d="M12.5067 8.69769C12.0708 8.69994 11.6921 8.80494 11.3749 8.96006C11.2585 8.72963 11.1421 8.52425 11.1216 8.37363C11.0987 8.19794 11.0714 8.09069 11.0987 7.88075C11.1261 7.67082 11.2494 7.37194 11.2471 7.34913C11.2447 7.32632 11.2197 7.21907 10.9687 7.21675C10.7177 7.21444 10.5009 7.26469 10.4758 7.33088C10.4507 7.397 10.4028 7.54763 10.3709 7.70282C10.3275 7.931 9.86881 8.74563 9.60643 9.17232C9.522 9.00575 9.449 8.85969 9.433 8.74332C9.41018 8.56763 9.38281 8.46038 9.41018 8.25044C9.43756 8.0405 9.56081 7.74157 9.5585 7.71875C9.55618 7.69594 9.53112 7.58869 9.28012 7.58644C9.02912 7.58419 8.81231 7.63432 8.78725 7.7005C8.76212 7.76669 8.73475 7.92188 8.68225 8.07244C8.62981 8.22307 8.02056 9.58307 7.86081 9.93444C7.79627 10.0766 7.72856 10.2174 7.65775 10.3566C7.65775 10.3566 7.65543 10.3634 7.64862 10.3748C7.62635 10.4185 7.60351 10.4618 7.58012 10.5049V10.5072C7.54593 10.5688 7.50937 10.6258 7.49112 10.6258C7.47743 10.6258 7.45237 10.4616 7.49568 10.2379C7.587 9.76557 7.80375 9.03082 7.8015 9.00575C7.8015 8.99206 7.84256 8.86425 7.66 8.79807C7.482 8.73188 7.41812 8.84144 7.40212 8.84144C7.38618 8.84144 7.37475 8.88025 7.37475 8.88025C7.37475 8.88025 7.57331 8.05419 6.996 8.05419C6.63543 8.05419 6.138 8.44894 5.89162 8.80494C5.61145 8.95739 5.33151 9.11026 5.05181 9.26357C4.91725 9.33888 4.77806 9.41419 4.64793 9.48494C4.63881 9.47582 4.62968 9.46438 4.62056 9.45525C3.92231 8.70906 2.63081 8.182 2.68556 7.18025C2.70612 6.81513 2.83162 5.85675 5.16593 4.693C7.08725 3.74607 8.61612 4.00844 8.88081 4.59032C9.25956 5.42094 8.06162 6.96344 6.07643 7.18707C5.31881 7.2715 4.92181 6.97944 4.82143 6.86994C4.71643 6.75582 4.70043 6.749 4.66162 6.77182C4.59775 6.806 4.63881 6.90869 4.66162 6.968C4.721 7.12319 4.96512 7.397 5.37812 7.53163C5.74325 7.65032 6.63087 7.7165 7.70562 7.30119C8.90818 6.83569 9.84831 5.54182 9.57218 4.458C9.29612 3.35813 7.47062 2.99532 5.74325 3.60913C4.71637 3.97425 3.60287 4.54925 2.80193 5.29769C1.85037 6.18769 1.69981 6.96119 1.76143 7.28519C1.98275 8.43525 3.56862 9.18369 4.203 9.73819C4.17106 9.75644 4.14137 9.77244 4.11631 9.78613C3.79912 9.94357 2.58975 10.5756 2.2885 11.2443C1.94625 12.0018 2.34331 12.5449 2.60568 12.6179C3.42031 12.8438 4.25775 12.4376 4.70731 11.7668C5.15687 11.0959 5.10206 10.2243 4.89437 9.82494C4.89211 9.81991 4.88902 9.81528 4.88525 9.81125C4.96743 9.76332 5.05181 9.71313 5.134 9.66519C5.28501 9.57596 5.43792 9.48998 5.59262 9.40732C5.51506 9.61957 5.458 9.87282 5.43062 10.2379C5.39643 10.6669 5.57212 11.2237 5.80256 11.4428C5.90525 11.5386 6.02618 11.5409 6.10381 11.5409C6.37306 11.5409 6.494 11.3173 6.62862 11.0526C6.79287 10.7285 6.94125 10.352 6.94125 10.352C6.94125 10.352 6.75637 11.3698 7.25837 11.3698C7.44093 11.3698 7.62575 11.1324 7.70793 11.0115V11.0138C7.70793 11.0138 7.7125 11.0069 7.72162 10.9909C7.73987 10.9613 7.75125 10.943 7.75125 10.943V10.9384C7.82431 10.8107 7.98856 10.5209 8.23275 10.0394C8.54762 9.41875 8.85112 8.64294 8.85112 8.64294C8.85112 8.64294 8.8785 8.83231 8.97206 9.14719C9.02681 9.33207 9.14093 9.53513 9.23218 9.73138C9.15918 9.83406 9.11356 9.89107 9.11356 9.89107L9.11581 9.89338C9.0565 9.97094 8.99262 10.0554 8.92187 10.1375C8.67312 10.4342 8.3765 10.7742 8.33543 10.8723C8.2875 10.9887 8.29893 11.0731 8.39018 11.1416C8.45637 11.1918 8.575 11.1986 8.69593 11.1918C8.91956 11.1758 9.07706 11.121 9.15462 11.0868C9.27556 11.0434 9.41706 10.9773 9.54937 10.8791C9.79356 10.6989 9.94187 10.441 9.92818 10.101C9.92131 9.91388 9.85968 9.72682 9.78443 9.55107C9.80725 9.51913 9.82775 9.48719 9.85056 9.45525C10.2362 8.89163 10.5351 8.27325 10.5351 8.27325C10.5351 8.27325 10.5625 8.46263 10.6561 8.77757C10.7017 8.93725 10.7952 9.11069 10.8774 9.27957C10.5146 9.57394 10.291 9.91619 10.2111 10.1398C10.0674 10.5551 10.1792 10.7422 10.3914 10.7856C10.4872 10.8061 10.6241 10.7605 10.7246 10.7171C10.8523 10.6761 11.0029 10.6053 11.1467 10.5003C11.3908 10.3201 11.6259 10.0691 11.6122 9.72906C11.6053 9.57394 11.5642 9.421 11.5072 9.27269C11.8152 9.14494 12.2123 9.07419 12.7189 9.1335C13.8051 9.26132 14.0196 9.939 13.9784 10.2243C13.9374 10.5094 13.7092 10.6646 13.6339 10.7126C13.5586 10.7605 13.5335 10.7764 13.5404 10.8107C13.5495 10.8609 13.586 10.8586 13.6499 10.8494C13.7389 10.8335 14.2203 10.619 14.2409 10.0942C14.2751 9.42332 13.6362 8.69081 12.5067 8.69769ZM4.12768 11.5226C3.76718 11.9151 3.26518 12.0634 3.04837 11.9379C2.81562 11.8033 2.90687 11.2237 3.34962 10.8084C3.61881 10.5551 3.96568 10.3201 4.19612 10.1763C4.24862 10.1444 4.32618 10.0988 4.41975 10.0417C4.43575 10.0326 4.44487 10.028 4.44487 10.028L4.49962 9.99375C4.66162 10.5871 4.50643 11.1096 4.12768 11.5226ZM6.75187 9.73819C6.62637 10.044 6.364 10.8266 6.20425 10.7833C6.06737 10.7468 5.98293 10.1535 6.17687 9.56707C6.275 9.27269 6.48262 8.92132 6.60356 8.78438C6.79981 8.56532 7.01656 8.49231 7.06906 8.58132C7.13525 8.69769 6.8295 9.5465 6.75187 9.73819ZM8.91737 10.7742C8.86487 10.8016 8.81468 10.8198 8.79187 10.8061C8.77587 10.797 8.81468 10.7605 8.81468 10.7605C8.81468 10.7605 9.08625 10.4684 9.1935 10.3361C9.25506 10.2584 9.32812 10.1672 9.40568 10.0645V10.0942C9.40568 10.4433 9.068 10.6783 8.91737 10.7742ZM10.5877 10.3931C10.5489 10.3657 10.5557 10.2744 10.6858 9.98919C10.736 9.87738 10.8547 9.69032 11.0577 9.51C11.0806 9.58307 11.0966 9.65375 11.0942 9.71994C11.092 10.1604 10.7771 10.3246 10.5877 10.3931Z" fill="#333333"/>
</g>
</g>
<defs>
<clipPath id="clip0_2_29">
<rect width="16" height="16" fill="white"/>
</clipPath>
</defs>
</svg>
