<svg width="24" height="24" viewBox="0 0 24 24" fill="none" xmlns="http://www.w3.org/2000/svg">
<path d="M11.8266 7.00301C10.8933 6.99034 9.98801 7.32185 9.28361 7.93423C8.57922 8.54662 8.12504 9.39698 8.00779 10.323C8.23376 9.93794 8.55074 9.61423 8.93093 9.38023C9.31113 9.14623 9.74293 9.00909 10.1885 8.98082C11.5322 8.98082 12.5545 10.5497 13.1783 11.039C13.7736 11.5096 14.4771 11.8241 15.2248 11.954C15.9725 12.0839 16.7408 12.0251 17.4601 11.7828C19.0512 11.2753 19.7943 9.50352 19.9558 8.66339C19.1849 9.76049 18.0146 10.4192 16.5674 9.64274C15.5706 9.10732 14.8251 6.90755 11.8266 7.00301ZM7.86299 11.9825C6.92968 11.9693 6.02424 12.3005 5.31975 12.9128C4.61526 13.5252 4.16114 14.3756 4.04422 15.3017C4.27048 14.9162 4.58796 14.5923 4.96875 14.3582C5.34954 14.1242 5.78199 13.9873 6.22808 13.9595C7.57181 13.9595 8.59413 15.5284 9.21786 16.0177C9.81325 16.4883 10.5167 16.8028 11.2644 16.9327C12.0121 17.0626 12.7804 17.0038 13.4997 16.7616C15.0908 16.254 15.8331 14.4822 15.9954 13.6421C15.2237 14.7392 14.0542 15.3987 12.607 14.6215C11.6102 14.086 10.8647 11.8823 7.86299 11.9825Z" fill="black"/>
</svg>
