<svg width="24" height="24" viewBox="0 0 24 24" fill="none" xmlns="http://www.w3.org/2000/svg">
<rect x="0.25" y="0.25" width="23.5" height="23.5" rx="7.75" stroke="#13F2F2" stroke-width="0.5"/>
<path d="M7.022 9.02399C7.262 7.53199 7.677 6.18799 8.227 5.08899C8.723 4.09699 9.353 3.26099 10.091 2.71899C8.26067 3.09695 6.5828 4.00722 5.26803 5.3355C3.95326 6.66379 3.06021 8.35089 2.701 10.185C3.28183 9.91296 3.88635 9.69471 4.507 9.53299C5.33415 9.31188 6.17406 9.14157 7.022 9.02299M2.547 12.636C2.52001 12.2124 2.52001 11.7876 2.547 11.364C2.581 11.34 2.617 11.316 2.655 11.292C3.125 10.989 3.835 10.698 4.755 10.447C5.45868 10.2595 6.17208 10.1106 6.892 10.001C6.75287 11.33 6.75287 12.67 6.892 13.999C6.17242 13.8893 5.45936 13.7404 4.756 13.553C3.836 13.301 3.124 13.011 2.655 12.708L2.547 12.636ZM2.7 13.816C3.05946 15.65 3.95274 17.337 5.26768 18.6651C6.58263 19.9932 8.26062 20.9033 10.091 21.281C9.353 20.739 8.723 19.903 8.227 18.911C7.677 17.811 7.261 16.468 7.022 14.976C6.17406 14.8574 5.33415 14.6871 4.507 14.466C3.88608 14.305 3.28122 14.0874 2.7 13.816ZM13.909 21.281C15.7394 20.9033 17.4174 19.9932 18.7323 18.6651C20.0473 17.337 20.9405 15.65 21.3 13.816C20.7191 14.0873 20.1146 14.3049 19.494 14.466C18.6665 14.6871 17.8263 14.8575 16.978 14.976C16.738 16.468 16.323 17.811 15.773 18.911C15.277 19.903 14.647 20.739 13.909 21.281ZM21.453 11.364C21.48 11.7876 21.48 12.2124 21.453 12.636L21.346 12.708C20.876 13.011 20.165 13.302 19.244 13.553C18.612 13.725 17.894 13.875 17.108 13.999C17.2471 12.67 17.2471 11.33 17.108 10.001C17.894 10.124 18.612 10.275 19.244 10.447C20.165 10.698 20.876 10.989 21.346 11.292C21.384 11.316 21.4197 11.34 21.453 11.364ZM21.3 10.185C20.9407 8.35076 20.0475 6.66356 18.7326 5.33526C17.4176 4.00696 15.7395 3.09678 13.909 2.71899C14.647 3.26099 15.277 4.09699 15.773 5.08899C16.323 6.18899 16.739 7.53199 16.978 9.02399C17.8259 9.14257 18.6658 9.31288 19.493 9.53399C20.182 9.72099 20.793 9.93799 21.3 10.184M8.004 8.89799C8.235 7.60299 8.606 6.44999 9.074 5.51299C9.779 4.10299 10.649 3.27799 11.526 3.05899V8.68699C10.3493 8.69939 9.17386 8.77047 8.004 8.89799ZM12.474 8.68699V3.05899C13.351 3.27899 14.221 4.10299 14.926 5.51299C15.394 6.44999 15.765 7.60299 15.996 8.89799C14.8262 8.77014 13.6507 8.69972 12.474 8.68699ZM7.86 9.86799C9.07706 9.72588 10.3007 9.64777 11.526 9.63399V14.366C10.3011 14.3522 9.07773 14.2741 7.861 14.132C7.77751 13.4244 7.7361 12.7125 7.737 12C7.737 11.264 7.779 10.55 7.86 9.86799ZM16.14 9.86799C14.9229 9.72588 13.6993 9.64777 12.474 9.63399V14.366C13.6993 14.3522 14.9229 14.2741 16.14 14.132C16.22 13.45 16.263 12.736 16.263 12C16.263 11.264 16.22 10.55 16.14 9.86799ZM8.004 15.102C9.102 15.225 10.288 15.298 11.526 15.312V20.941C10.649 20.721 9.779 19.897 9.074 18.487C8.606 17.55 8.235 16.397 8.004 15.102ZM12.474 15.313V20.941C13.351 20.721 14.221 19.897 14.926 18.487C15.394 17.55 15.765 16.397 15.996 15.102C14.8261 15.2295 13.6507 15.3006 12.474 15.313Z" fill="#13F2F2"/>
</svg>
