<svg width="48" height="48" viewBox="0 0 48 48" fill="none" xmlns="http://www.w3.org/2000/svg">
<path d="M40.432 12.83L40.168 11.498C39.93 10.302 39.392 9.17197 38.166 8.73997C37.772 8.60197 37.326 8.54397 37.026 8.25797C36.722 7.97197 36.634 7.52597 36.564 7.11397C36.434 6.35797 36.314 5.60197 36.18 4.84797C36.066 4.19797 35.976 3.46797 35.68 2.87397C35.29 2.07397 34.486 1.60597 33.688 1.29797C33.278 1.14593 32.8601 1.0164 32.436 0.909974C30.436 0.383974 28.336 0.189974 26.282 0.0779737C23.8155 -0.0565057 21.3426 -0.0150675 18.882 0.201974C17.052 0.367974 15.122 0.569974 13.382 1.20197C12.746 1.43397 12.09 1.71397 11.606 2.20397C11.012 2.80797 10.82 3.74397 11.252 4.49597C11.56 5.02997 12.082 5.40797 12.636 5.65597C13.356 5.97997 14.11 6.22397 14.882 6.38797C17.032 6.86397 19.26 7.04997 21.456 7.12797C23.8947 7.22664 26.328 7.14797 28.756 6.89197C29.3547 6.82531 29.952 6.74597 30.548 6.65397C31.252 6.54597 31.704 5.62797 31.496 4.98597C31.248 4.21997 30.582 3.92397 29.828 4.03997C28.896 4.18797 27.908 4.25597 27.064 4.33197C24.708 4.49197 22.3507 4.49597 19.992 4.34397C19.2189 4.29303 18.4473 4.22167 17.678 4.12997C17.506 4.10997 17.318 4.07997 17.162 4.05797C16.6767 3.98464 16.194 3.89797 15.714 3.79797C15.492 3.74397 15.492 3.42797 15.714 3.37397H15.724C16.2787 3.25397 16.8373 3.15597 17.4 3.07997H17.404C17.666 3.06197 17.93 3.01597 18.192 2.98397C20.4678 2.74729 22.7572 2.6671 25.044 2.74397C26.392 2.78264 27.7367 2.87864 29.078 3.03197L29.534 3.09397C30.0673 3.17397 30.5993 3.27064 31.13 3.38397C31.914 3.55397 32.92 3.60997 33.27 4.46797C33.38 4.74197 33.43 5.04397 33.492 5.32997L34.13 8.29797C34.1435 8.36161 34.1438 8.42736 34.1308 8.49111C34.1178 8.55486 34.0919 8.61526 34.0545 8.66854C34.0172 8.72183 33.9693 8.76685 33.9138 8.80082C33.8583 8.83479 33.7964 8.85696 33.732 8.86597H33.726L33.502 8.89597C30.3559 9.2957 27.1874 9.49278 24.016 9.48597C20.8736 9.48306 17.7346 9.27998 14.618 8.87797C14.338 8.84397 14.032 8.79397 13.784 8.75797C13.132 8.66197 12.486 8.54197 11.838 8.43597C11.052 8.30597 10.302 8.37197 9.592 8.75797C9.012 9.07797 8.538 9.56597 8.242 10.16C7.934 10.792 7.844 11.48 7.708 12.16C7.57 12.84 7.356 13.574 7.438 14.272C7.612 15.778 8.664 17.002 10.178 17.276C17.665 18.6118 25.305 18.8651 32.864 18.028C33.0076 18.0116 33.1531 18.0277 33.2896 18.0751C33.4262 18.1224 33.5504 18.1998 33.6531 18.3015C33.7557 18.4032 33.8343 18.5267 33.8829 18.6628C33.9315 18.7989 33.949 18.9442 33.934 19.088L33.792 20.482L31.756 40.296C31.674 41.116 31.662 41.96 31.506 42.77C31.262 44.044 30.4 44.826 29.142 45.112C27.9847 45.3746 26.814 45.5113 25.63 45.522C24.318 45.53 23.01 45.472 21.698 45.478C20.3 45.486 18.586 45.358 17.508 44.318C16.558 43.402 16.428 41.97 16.298 40.732L14.836 26.706L14.192 20.518C14.118 19.816 13.62 19.128 12.836 19.162C12.164 19.192 11.4 19.762 11.48 20.52L11.936 24.89L13.834 43.114C14.128 45.802 16.182 47.25 18.726 47.658C20.21 47.898 21.732 47.946 23.24 47.97C25.172 48.002 27.124 48.076 29.024 47.726C31.84 47.21 33.954 45.33 34.256 42.412L36.304 22.422L36.734 18.248C36.7539 18.0405 36.8408 17.8452 36.9815 17.6915C37.1222 17.5378 37.3091 17.4341 37.514 17.396C38.318 17.24 39.088 16.972 39.662 16.36C40.572 15.384 40.754 14.114 40.432 12.83ZM37.476 14.374C37.186 14.648 36.75 14.776 36.32 14.84C31.488 15.558 26.588 15.92 21.704 15.76C18.208 15.64 14.75 15.252 11.29 14.764C10.95 14.716 10.584 14.654 10.35 14.404C9.91 13.932 10.128 12.984 10.242 12.414C10.346 11.894 10.546 11.196 11.168 11.122C12.136 11.008 13.26 11.418 14.22 11.562C15.3733 11.738 16.5313 11.8793 17.694 11.986C22.654 12.438 27.698 12.366 32.638 11.706C33.538 11.586 34.4347 11.446 35.328 11.286C36.126 11.142 37.008 10.874 37.488 11.698C37.82 12.26 37.864 13.012 37.812 13.646C37.797 13.923 37.676 14.1837 37.474 14.374H37.476ZM25.158 22.174C23.434 22.914 21.478 23.75 18.94 23.75C17.8794 23.7446 16.8242 23.5987 15.802 23.316L17.556 41.324C17.686 42.884 18.99 44.084 20.556 44.084C20.556 44.084 23.042 44.214 23.872 44.214C24.766 44.214 27.444 44.084 27.444 44.084C29.01 44.084 30.312 42.884 30.442 41.324L32.322 21.424C31.4738 21.1174 30.5799 20.9565 29.678 20.948C28.026 20.948 26.696 21.516 25.158 22.174Z" fill="#13F2F2"/>
</svg>
