<svg width="24" height="24" viewBox="0 0 24 24" fill="none" xmlns="http://www.w3.org/2000/svg">
<path d="M4 4V17.44C4 18.119 4.26971 18.7701 4.74981 19.2502C5.2299 19.7303 5.88105 20 6.56 20H17.44C18.119 20 18.7701 19.7303 19.2502 19.2502C19.7303 18.7701 20 18.119 20 17.44V6.56C20 5.88105 19.7303 5.2299 19.2502 4.74981C18.7701 4.26971 18.119 4 17.44 4H4ZM13.504 12.72C14.544 12.72 15.024 13.44 15.04 14.48H13.968C13.984 14.288 13.936 14.08 13.872 13.92C13.808 13.792 13.68 13.744 13.504 13.744C13.2 13.744 13.04 13.92 13.04 14.304C13.024 14.688 13.232 14.896 13.552 15.024C14.032 15.216 14.624 15.52 14.832 15.888C15.024 16.176 15.12 16.544 15.12 16.992C15.12 18.064 14.512 18.72 13.456 18.72C12.352 18.72 11.856 18.032 11.84 16.928H12.96C12.96 17.456 13.136 17.712 13.488 17.712C13.664 17.712 13.792 17.664 13.856 17.552C13.984 17.344 14.016 16.768 13.824 16.544C13.616 16.272 13.216 16.144 12.944 16C12.576 15.824 12.304 15.616 12.128 15.376C11.968 15.136 11.888 14.784 11.888 14.352C11.888 13.392 12.512 12.704 13.504 12.72ZM17.104 12.72C18.16 12.72 18.64 13.44 18.656 14.48H17.584C17.584 14.288 17.552 14.08 17.472 13.92C17.408 13.792 17.296 13.744 17.12 13.744C16.8 13.744 16.64 13.92 16.64 14.304C16.64 14.688 16.832 14.896 17.168 15.024C17.632 15.216 18.24 15.52 18.448 15.888C18.624 16.176 18.72 16.544 18.72 16.992C18.736 18.064 18.128 18.72 17.072 18.72C15.952 18.72 15.456 18.016 15.44 16.928H16.56C16.56 17.424 16.736 17.712 17.088 17.712C17.264 17.712 17.392 17.664 17.456 17.552C17.6 17.344 17.632 16.768 17.424 16.544C17.232 16.272 16.832 16.144 16.544 16C16.176 15.824 15.904 15.616 15.744 15.376C15.584 15.136 15.504 14.784 15.504 14.352C15.488 13.392 16.112 12.704 17.104 12.72ZM9.75 12.732C10.224 12.728 10.696 12.864 10.976 13.152C11.264 13.44 11.424 13.904 11.408 14.48H10.224C10.24 14.176 10.16 13.952 9.936 13.84C9.728 13.744 9.424 13.808 9.344 14C9.264 14.176 9.216 14.384 9.232 14.576V16.912C9.232 17.408 9.408 17.664 9.744 17.664C9.81507 17.6671 9.88582 17.6527 9.95 17.622C10.0142 17.5913 10.0698 17.5453 10.112 17.488C10.224 17.328 10.24 17.12 10.224 16.928H11.408C11.472 18.016 10.752 18.736 9.696 18.72C8.672 18.72 8.032 18.144 8.048 17.072V14.384C8.048 13.84 8.208 13.424 8.512 13.152C8.8 12.88 9.276 12.736 9.75 12.732Z" fill="#13F2F2"/>
</svg>
