<svg width="24" height="24" viewBox="0 0 24 24" fill="none" xmlns="http://www.w3.org/2000/svg">
<path d="M19.1199 4.88012C18.5326 4.29284 17.826 3.99947 17 4H6.99995C6.17348 4 5.46687 4.29338 4.88012 4.88012C4.29284 5.46741 3.99947 6.17402 4 6.99995V17C4 17.8265 4.29338 18.5331 4.88012 19.1199C5.46741 19.7072 6.17402 20.0005 6.99995 20H9.3336C9.48576 20 9.60028 19.9947 9.67716 19.984C9.7667 19.9663 9.84751 19.9185 9.9062 19.8486C9.98255 19.7686 10.0207 19.6524 10.0207 19.5003L10.0151 18.7915C10.0119 18.3399 10.0103 17.9821 10.0103 17.7184L9.77006 17.76C9.6179 17.7878 9.42543 17.8001 9.19265 17.7969C8.94976 17.7922 8.70764 17.7679 8.46869 17.724C8.2141 17.6778 7.97449 17.5707 7.77036 17.4117C7.55609 17.2497 7.3963 17.0262 7.31228 16.771L7.20817 16.5308C7.12008 16.3414 7.00987 16.1632 6.87982 15.9998C6.73033 15.8055 6.57924 15.6736 6.42655 15.6042L6.35447 15.5521C6.30442 15.5159 6.25874 15.474 6.21833 15.4272C6.17973 15.3838 6.14812 15.3346 6.12463 15.2814C6.10381 15.2323 6.12116 15.1923 6.17669 15.1613C6.23221 15.1293 6.33312 15.1135 6.4794 15.1141L6.68762 15.1461C6.82644 15.1733 6.99808 15.2564 7.20256 15.3952C7.40923 15.5361 7.58186 15.7213 7.70789 15.9373C7.86806 16.2214 8.0608 16.4384 8.2861 16.5884C8.51194 16.7379 8.73938 16.8127 8.96842 16.8127C9.19746 16.8127 9.39553 16.7953 9.56264 16.7606C9.72448 16.7271 9.88175 16.6744 10.0311 16.6036C10.0936 16.1386 10.2636 15.7809 10.5413 15.5305C10.1812 15.4949 9.82438 15.4323 9.47375 15.3431C9.13158 15.2492 8.80254 15.1128 8.49432 14.9371C8.17178 14.7615 7.88689 14.5242 7.65584 14.2388C7.43374 13.9611 7.25141 13.5967 7.10887 13.1456C6.96685 12.6939 6.89584 12.1728 6.89584 11.5824C6.89584 10.7425 7.17 10.0271 7.7183 9.43611C7.46204 8.80451 7.48633 8.09657 7.79118 7.31228C7.99299 7.24928 8.29171 7.29599 8.68732 7.45243C9.08294 7.60886 9.37284 7.74233 9.55704 7.85285C9.74123 7.96496 9.88885 8.05893 9.9999 8.13474C10.6509 7.95323 11.3238 7.86214 11.9996 7.86406C12.6873 7.86406 13.3541 7.95429 14.0001 8.13474L14.3957 7.88488C14.7 7.70218 15.021 7.5488 15.3543 7.4268C15.7222 7.28799 16.0035 7.24981 16.1984 7.31228C16.5107 8.0971 16.5382 8.80531 16.2809 9.43691C16.8297 10.0269 17.1042 10.7423 17.1042 11.5832C17.1042 12.1736 17.0329 12.6961 16.8903 13.1504C16.7483 13.6053 16.5644 13.9699 16.3386 14.2444C16.1028 14.5255 15.8168 14.7604 15.4953 14.9371C15.1589 15.1245 14.8324 15.2598 14.5158 15.3431C14.1652 15.4325 13.8084 15.4955 13.4483 15.5313C13.8087 15.8436 13.9892 16.3364 13.9897 17.0097V19.5003C13.9897 19.6177 14.007 19.713 14.0417 19.7862C14.0579 19.8213 14.081 19.8528 14.1097 19.8788C14.1383 19.9048 14.1718 19.9248 14.2083 19.9375C14.2847 19.9653 14.3525 19.9824 14.4117 19.9888C14.471 19.9963 14.5559 19.9997 14.6664 19.9992H17C17.8265 19.9992 18.5331 19.7058 19.1199 19.1191C19.7066 18.5323 20 17.8257 20 16.9992V6.99995C20 6.17348 19.7072 5.46687 19.1199 4.88012Z" fill="#13F2F2"/>
</svg>
