<svg width="24" height="24" viewBox="0 0 24 24" fill="none" xmlns="http://www.w3.org/2000/svg">
<path d="M6.66667 4C5.95942 4 5.28115 4.28095 4.78105 4.78105C4.28095 5.28115 4 5.95942 4 6.66667V17.3333C4 18.0406 4.28095 18.7189 4.78105 19.219C5.28115 19.719 5.95942 20 6.66667 20H17.3333C18.0406 20 18.7189 19.719 19.219 19.219C19.719 18.7189 20 18.0406 20 17.3333V6.66667C20 5.95942 19.719 5.28115 19.219 4.78105C18.7189 4.28095 18.0406 4 17.3333 4H6.66667ZM13.1858 15.6044C13.8258 16.12 14.4646 16.3742 15.1022 16.3671C15.4933 16.3671 15.7932 16.2954 16.0018 16.152C16.0989 16.089 16.1779 16.0017 16.2311 15.8988C16.2842 15.796 16.3097 15.681 16.3049 15.5653C16.3062 15.4391 16.2799 15.3142 16.2277 15.1993C16.1754 15.0844 16.0986 14.9824 16.0027 14.9004C15.7941 14.7185 15.3994 14.536 14.8187 14.3529C14.1212 14.1514 13.5834 13.8907 13.2053 13.5707C12.8344 13.2507 12.6453 12.8041 12.6382 12.2311C12.6382 11.6901 12.8729 11.237 13.3422 10.872C13.7985 10.507 14.3822 10.3244 15.0933 10.3244C16.0841 10.3244 16.8791 10.5656 17.4782 11.048L16.7938 12.1138C16.5473 11.9222 16.2646 11.7825 15.9627 11.7031C15.6913 11.6122 15.4079 11.5628 15.1218 11.5564C14.784 11.5564 14.5135 11.6184 14.3102 11.7422C14.1087 11.8667 14.008 12.0296 14.008 12.2311C14.008 12.4527 14.1316 12.6418 14.3787 12.7982C14.6276 12.9487 15.0513 13.115 15.6498 13.2969C16.3733 13.512 16.8883 13.7988 17.1947 14.1573C17.501 14.5159 17.6542 14.9721 17.6542 15.5262C17.6542 16.0933 17.4359 16.5822 16.9991 16.9929C16.5689 17.397 15.9431 17.6089 15.1218 17.6284C14.0462 17.6284 13.1467 17.3058 12.4231 16.6604L13.1858 15.6044ZM8.27022 16.1716C8.47881 16.3019 8.72978 16.3671 9.02311 16.3671C9.32948 16.3671 9.5837 16.2791 9.78578 16.1031C9.98726 15.9206 10.0883 15.6044 10.0889 15.1547V10.4418H11.4089V15.4089C11.3893 16.1781 11.1677 16.7321 10.744 17.0711C10.5122 17.2671 10.2426 17.4135 9.952 17.5013C9.6825 17.5834 9.40259 17.6262 9.12089 17.6284C8.632 17.6284 8.19852 17.5437 7.82044 17.3742C7.4163 17.1923 7.07733 16.8696 6.80356 16.4062L7.72267 15.6533C7.89156 15.8815 8.07407 16.0542 8.27022 16.1716Z" fill="black"/>
</svg>
