<svg width="16" height="16" viewBox="0 0 16 16" fill="none" xmlns="http://www.w3.org/2000/svg">
<g clip-path="url(#clip0_2_37)">
<path d="M10.759 3.00001C10.7436 2.99984 10.7285 3.00372 10.7151 3.01126C10.7012 3.01944 10.6896 3.03105 10.6814 3.04498C10.6732 3.05892 10.6686 3.07472 10.6682 3.09088V5.45713C10.668 5.46878 10.6649 5.48019 10.6591 5.49032C10.6533 5.50044 10.6451 5.50897 10.6352 5.51513C10.6253 5.52049 10.6141 5.5233 10.6027 5.5233C10.5914 5.5233 10.5802 5.52049 10.5702 5.51513L10.187 5.29351C10.1589 5.27744 10.127 5.26898 10.0946 5.26898C10.0622 5.26898 10.0304 5.27744 10.0022 5.29351L8.46875 6.18526C8.44033 6.20125 8.41665 6.22447 8.40009 6.25257C8.38354 6.28067 8.37471 6.31264 8.3745 6.34525V8.12501C8.3745 8.19051 8.41087 8.25263 8.46875 8.28538L10.0025 9.17726C10.0306 9.19328 10.0624 9.20171 10.0947 9.20171C10.1271 9.20171 10.1589 9.19328 10.187 9.17726L11.7207 8.28538C11.7786 8.25263 11.815 8.19051 11.815 8.12501V3.68801C11.815 3.61888 11.7786 3.55676 11.7207 3.52426L10.8057 3.01126C10.7912 3.00394 10.7752 3.00009 10.759 3.00001ZM1.71075 5.22076C1.682 5.22076 1.65312 5.23151 1.62787 5.24576L0.0941245 6.13438C0.0652988 6.15078 0.0413764 6.17459 0.0248291 6.20333C0.0082818 6.23207 -0.000289993 6.26472 -5.33997e-07 6.29788L0.00374947 8.68551C0.00374947 8.71838 0.0214995 8.75126 0.0504995 8.76588C0.0639567 8.77472 0.0797083 8.77944 0.095812 8.77944C0.111916 8.77944 0.127667 8.77472 0.141124 8.76588L1.053 8.24176C1.08136 8.22567 1.10497 8.20238 1.12143 8.17424C1.1379 8.1461 1.14663 8.11411 1.14675 8.08151V6.96413C1.14675 6.89863 1.183 6.83651 1.241 6.80376L1.62787 6.57813C1.65618 6.56095 1.68877 6.55215 1.72187 6.55275C1.75437 6.55275 1.78712 6.55988 1.8125 6.57813L2.1995 6.80376C2.25737 6.83651 2.29375 6.89863 2.29375 6.96413V8.08163C2.29375 8.14688 2.32975 8.20913 2.3875 8.24163L3.292 8.76588C3.30604 8.77482 3.32235 8.77957 3.339 8.77957C3.35565 8.77957 3.37195 8.77482 3.386 8.76588C3.40044 8.75806 3.41247 8.74643 3.42077 8.73226C3.42908 8.7181 3.43335 8.70193 3.43312 8.68551V6.29788C3.43312 6.23238 3.39687 6.17038 3.33887 6.13751L1.80875 5.24576C1.78297 5.23208 1.75478 5.22354 1.72575 5.22063L1.71075 5.22076ZM14.2945 5.24663V5.24688L14.2942 5.24713C14.2626 5.24713 14.2311 5.25526 14.2021 5.27176L12.6682 6.163C12.6104 6.196 12.5745 6.25788 12.5745 6.3235V8.1035C12.5745 8.169 12.6104 8.23101 12.6682 8.26363L14.1911 9.13726C14.2186 9.15336 14.2498 9.16186 14.2816 9.16186C14.3134 9.16186 14.3447 9.15336 14.3721 9.13726L15.2946 8.62063C15.309 8.61277 15.321 8.60114 15.3293 8.58697C15.3375 8.5728 15.3418 8.55665 15.3415 8.54026C15.3417 8.52392 15.3374 8.50785 15.3292 8.49375C15.3209 8.47966 15.309 8.46808 15.2946 8.46026L13.7537 7.56825C13.7397 7.55998 13.7279 7.54821 13.7197 7.53409C13.7115 7.51997 13.7071 7.50396 13.7069 7.48763V6.93076C13.7067 6.91446 13.711 6.89844 13.7193 6.8844C13.7275 6.87035 13.7394 6.85881 13.7537 6.85101L14.2355 6.57438C14.2495 6.56544 14.2658 6.56069 14.2825 6.56069C14.2991 6.56069 14.3155 6.56544 14.3295 6.57438L14.8101 6.85101C14.8241 6.85917 14.8358 6.87079 14.8441 6.88475C14.8523 6.89871 14.8569 6.91455 14.8572 6.93076V7.36751C14.8572 7.40038 14.8752 7.43313 14.9041 7.44763C14.9182 7.45662 14.9345 7.4614 14.9512 7.4614C14.9679 7.4614 14.9843 7.45662 14.9984 7.44763L15.9097 6.91263C15.9377 6.8964 15.9609 6.87303 15.9768 6.84492C15.9928 6.81681 16.001 6.78496 16.0006 6.75263V6.31951C16.0006 6.25401 15.9641 6.19213 15.9097 6.15926L14.3871 5.27163C14.359 5.25538 14.3271 5.24672 14.2946 5.24651L14.2945 5.24663ZM5.91412 5.25276C5.88422 5.25297 5.85487 5.26085 5.82887 5.27563L4.30762 6.15901L4.83987 7.13525L5.93212 5.25451C5.92619 5.25375 5.92023 5.25321 5.91425 5.25288H5.914L5.91412 5.25276ZM5.98487 5.27126L7.06075 7.123L7.56637 6.19238C7.55703 6.18275 7.54654 6.17431 7.53512 6.16725L6.75125 5.71188L5.99662 5.27588C5.99279 5.27421 5.98887 5.27267 5.98487 5.27126ZM5.95362 5.27876L4.85687 7.16676L5.94462 9.16238L5.95362 9.16063L7.0435 7.15476L5.9535 5.27888L5.95362 5.27876ZM4.2815 6.17526C4.25897 6.19102 4.24063 6.21205 4.22809 6.23651C4.21554 6.26098 4.20916 6.28814 4.2095 6.31563V8.10325C4.2095 8.13175 4.21725 8.15951 4.2305 8.18413L4.8215 7.16625L4.2815 6.17526ZM7.58775 6.21801L7.07887 7.15425L7.61862 8.08351V6.31563C7.61862 6.28063 7.60712 6.24651 7.58762 6.21813L7.58775 6.21801ZM10.0947 6.57613C10.103 6.57613 10.1109 6.57801 10.1185 6.58176L10.6426 6.88775C10.6571 6.895 10.6645 6.91288 10.6645 6.92751V7.53913C10.6645 7.55738 10.657 7.57213 10.6426 7.57938L10.1181 7.885C10.1108 7.88858 10.1027 7.89044 10.0946 7.89044C10.0864 7.89044 10.0783 7.88858 10.071 7.885L9.54662 7.57963C9.53212 7.57238 9.52462 7.55401 9.52462 7.53938V6.92775C9.52462 6.9095 9.53225 6.89513 9.54662 6.88775L10.071 6.58176C10.0783 6.57795 10.0865 6.57601 10.0947 6.57613ZM14.2891 6.82363C14.2826 6.8237 14.2763 6.8257 14.271 6.82938L13.9777 7.0005C13.9722 7.00392 13.9677 7.00871 13.9646 7.01441C13.9615 7.02011 13.9599 7.02652 13.96 7.03301V7.3755C13.96 7.39001 13.9669 7.40101 13.9777 7.40826L14.271 7.57938C14.2763 7.58295 14.2826 7.58486 14.2891 7.58486C14.2955 7.58486 14.3018 7.58295 14.3071 7.57938L14.6001 7.40813C14.6056 7.40464 14.6102 7.39983 14.6133 7.39412C14.6164 7.38842 14.6181 7.38202 14.6181 7.3755V7.03326C14.6182 7.02674 14.6166 7.02032 14.6134 7.01462C14.6103 7.00892 14.6057 7.00414 14.6001 7.00075L14.3071 6.82938C14.3018 6.82586 14.2955 6.82399 14.2891 6.82401V6.82363ZM7.06175 7.18613L5.99775 9.14426L5.9995 9.14338L7.53537 8.25126C7.57825 8.22701 7.60575 8.18551 7.615 8.13838L7.06175 7.18613ZM4.83887 7.19801L4.2495 8.21263C4.262 8.228 4.27662 8.24138 4.29325 8.25138L5.8125 9.13413L5.82875 9.1435H5.82912C5.84097 9.15019 5.85355 9.15548 5.86662 9.15926C5.87054 9.16034 5.87437 9.16125 5.87812 9.162C5.88554 9.16367 5.89296 9.1648 5.90037 9.16538C5.90396 9.16563 5.90754 9.16571 5.91112 9.16563L4.83887 7.19801ZM7.90262 8.87213C7.84925 8.87213 7.796 8.88463 7.75075 8.91013L6.307 9.75138C6.26068 9.77853 6.22227 9.81734 6.19561 9.86394C6.16894 9.91054 6.15494 9.96331 6.155 10.017V11.6945C6.155 11.8038 6.21287 11.9056 6.30687 11.9604L6.687 12.1786C6.87137 12.2696 6.93637 12.2691 7.0195 12.2691C7.29075 12.2691 7.4465 12.1019 7.4465 11.8144V10.159C7.44638 10.1475 7.44182 10.1365 7.43378 10.1283C7.42575 10.1201 7.41485 10.1154 7.40337 10.115H7.219C7.20737 10.1151 7.19625 10.1198 7.18803 10.128C7.17981 10.1363 7.17513 10.1474 7.175 10.159V11.815C7.175 11.9424 7.04175 12.0699 6.82837 11.9608L6.43387 11.7315C6.41937 11.7243 6.41212 11.7056 6.41212 11.6911V10.013C6.41212 9.9985 6.41937 9.98013 6.43387 9.973L7.877 9.136C7.88787 9.12876 7.906 9.12876 7.92075 9.136L9.36375 9.97288C9.37812 9.98038 9.38575 9.99488 9.38575 10.0129V11.6909C9.38575 11.709 9.37825 11.724 9.36375 11.7313L7.92037 12.572C7.9095 12.5793 7.89137 12.5793 7.87662 12.572L7.508 12.3499C7.497 12.3426 7.4825 12.3391 7.47175 12.3461C7.3705 12.4046 7.35262 12.4121 7.25487 12.4449C7.23312 12.4521 7.197 12.4664 7.26925 12.5064L7.75075 12.7943C7.79775 12.8196 7.84825 12.834 7.90262 12.834C7.95687 12.834 8.01087 12.8196 8.05425 12.8015L9.4975 11.9608C9.54389 11.9335 9.58233 11.8946 9.60898 11.8479C9.63563 11.8012 9.64956 11.7483 9.64937 11.6945V10.017C9.64937 9.90776 9.5915 9.80626 9.4975 9.75163L8.05425 8.91038C8.00775 8.88503 7.95558 8.87179 7.90262 8.87213ZM10.156 9.63825C10.0819 9.63855 10.0109 9.66827 9.95874 9.72087C9.90653 9.77347 9.87736 9.84465 9.87762 9.91876C9.87743 9.99282 9.90663 10.0639 9.95882 10.1165C10.011 10.169 10.0819 10.1987 10.156 10.199C10.3081 10.199 10.4347 10.0715 10.4347 9.91876C10.4344 9.84479 10.405 9.77392 10.3528 9.72147C10.3007 9.66901 10.23 9.63917 10.156 9.63838V9.63825ZM10.1522 9.68526H10.1526C10.1835 9.68487 10.2141 9.69064 10.2427 9.70221C10.2713 9.71379 10.2973 9.73094 10.3192 9.75268C10.3412 9.77441 10.3585 9.80029 10.3703 9.8288C10.3821 9.85732 10.3881 9.8879 10.388 9.91876C10.388 10.0463 10.2829 10.155 10.1526 10.155C10.0261 10.155 9.92087 10.0498 9.92087 9.91876C9.92087 9.78776 10.0295 9.68551 10.1522 9.68526ZM10.051 9.76201V10.082H10.1127V9.95538H10.1675C10.1892 9.95538 10.1962 9.96263 10.2 9.98076C10.2 9.98451 10.2107 10.0644 10.2107 10.0789H10.2757C10.2682 10.0644 10.2649 10.0204 10.2612 9.99488C10.2577 9.95488 10.2542 9.926 10.2107 9.92238C10.2325 9.91501 10.2682 9.90425 10.2682 9.846C10.2682 9.76226 10.1957 9.76226 10.1596 9.76226L10.051 9.76201ZM10.1057 9.813H10.156C10.1742 9.813 10.2034 9.813 10.2034 9.85675C10.2034 9.87125 10.196 9.9005 10.156 9.9005H10.1057V9.813ZM8.29712 10.0643C7.88462 10.0643 7.63812 10.2391 7.63812 10.534C7.63812 10.8508 7.88425 10.9375 8.27862 10.9775C8.75237 11.025 8.78862 11.0944 8.78862 11.189C8.78862 11.3528 8.65837 11.4216 8.3545 11.4216C7.971 11.4216 7.88762 11.327 7.85862 11.1343C7.85862 11.1123 7.84112 11.098 7.81937 11.098H7.63125C7.61965 11.098 7.60852 11.1026 7.60031 11.1108C7.59211 11.119 7.5875 11.1302 7.5875 11.1418C7.5875 11.3893 7.718 11.6801 8.35125 11.6801C8.80687 11.6801 9.07062 11.4981 9.07062 11.1776C9.07062 10.8648 8.86062 10.7809 8.41587 10.7226C7.96712 10.6644 7.92025 10.6316 7.92025 10.5261C7.92025 10.4388 7.96025 10.3225 8.29275 10.3225C8.58962 10.3225 8.70175 10.388 8.74525 10.5881C8.74732 10.5972 8.7523 10.6053 8.75944 10.6113C8.76657 10.6172 8.77546 10.6207 8.78475 10.6211H8.9765C8.98737 10.6211 8.99862 10.614 9.006 10.6068C9.01263 10.597 9.01635 10.5855 9.01675 10.5738C8.98787 10.2244 8.76025 10.0643 8.29712 10.0643Z" fill="#13F2F2"/>
</g>
<defs>
<clipPath id="clip0_2_37">
<rect width="16" height="16" fill="white"/>
</clipPath>
</defs>
</svg>
