<svg width="22" height="22" viewBox="0 0 22 22" fill="none" xmlns="http://www.w3.org/2000/svg">
<rect x="0.75" y="0.75" width="20.5" height="20.5" rx="2.25" stroke="#13F2F2" stroke-width="0.5"/>
<path d="M19.75 12.25H13.5V16.2925C13.5014 16.8841 13.67 17.4632 13.9864 17.963C14.3028 18.4629 14.7541 18.8631 15.2881 19.1175L16.625 19.75L17.9619 19.1169C18.4959 18.8625 18.9472 18.4622 19.2636 17.9624C19.58 17.4625 19.7486 16.8834 19.75 16.2919V12.25ZM16.625 18.3662L15.8231 17.9869C15.5026 17.8344 15.2318 17.5944 15.0419 17.2946C14.852 16.9948 14.7508 16.6474 14.75 16.2925V13.5H18.5V16.2925C18.499 16.6473 18.3978 16.9946 18.2079 17.2943C18.018 17.594 17.7473 17.8338 17.4269 17.9862L16.625 18.3662ZM11.625 12.25H4.125C3.79348 12.25 3.47554 12.3817 3.24112 12.6161C3.0067 12.8505 2.875 13.1685 2.875 13.5V16.625C2.875 16.9565 3.0067 17.2745 3.24112 17.5089C3.47554 17.7433 3.79348 17.875 4.125 17.875H11.625V16.625H4.125V13.5H11.625V12.25ZM17.875 3.5H14.75C14.4185 3.5 14.1005 3.6317 13.8661 3.86612C13.6317 4.10054 13.5 4.41848 13.5 4.75V10.375H14.75V4.75H17.875V10.375H19.125V4.75C19.125 4.41848 18.9933 4.10054 18.7589 3.86612C18.5245 3.6317 18.2065 3.5 17.875 3.5ZM10.375 3.5H4.125C3.79348 3.5 3.47554 3.6317 3.24112 3.86612C3.0067 4.10054 2.875 4.41848 2.875 4.75V9.125C2.875 9.45652 3.0067 9.77446 3.24112 10.0089C3.47554 10.2433 3.79348 10.375 4.125 10.375H10.375C10.7065 10.375 11.0245 10.2433 11.2589 10.0089C11.4933 9.77446 11.625 9.45652 11.625 9.125V4.75C11.625 4.41848 11.4933 4.10054 11.2589 3.86612C11.0245 3.6317 10.7065 3.5 10.375 3.5ZM4.125 9.125V4.75H10.375V9.125H4.125Z" fill="#13F2F2"/>
</svg>
