<svg width="24" height="24" viewBox="0 0 24 24" fill="none" xmlns="http://www.w3.org/2000/svg">
<path d="M16.214 7L16.139 7.391C16.023 8.132 16.065 8.344 16.383 8.619L16.69 8.873L16.372 10.291C16.182 11.137 15.949 11.846 15.801 12.079C15.674 12.28 15.526 12.576 15.494 12.735C15.441 12.925 15.261 13.116 14.986 13.285C14.743 13.423 14.266 13.793 13.928 14.09C13.658 14.333 13.472 14.482 13.371 14.546L13.041 14.807C12.9561 14.9328 12.8923 15.0717 12.852 15.218C12.829 15.325 12.842 15.396 12.876 15.448C12.9093 15.498 12.9653 15.5337 13.044 15.555C13.1364 15.576 13.2314 15.5837 13.326 15.578C13.5401 15.5634 13.7519 15.5258 13.958 15.466C14.028 15.447 14.083 15.429 14.131 15.413C14.205 15.322 14.376 15.15 14.679 14.851C15.483 14.058 15.79 13.624 15.473 13.741C15.356 13.783 15.409 13.677 15.61 13.465C16.034 13.052 16.277 12.428 16.785 10.471C17.187 8.926 17.187 8.904 17.483 8.904C17.622 8.904 18.015 8.928 18.015 8.928V7H17.113H16.214ZM20.053 10.165C19.989 10.165 19.883 10.261 19.82 10.367C19.704 10.557 19.841 10.673 21.587 11.763C22.624 12.42 23.46 12.98 23.439 13.023C23.418 13.054 22.571 13.605 21.556 14.24C19.714 15.382 19.704 15.393 19.873 15.626C20.085 15.901 19.873 15.996 22.264 14.504L24 13.393V12.557L22.063 11.361C21.016 10.705 20.106 10.176 20.053 10.165ZM3.968 10.282C3.915 10.282 3.005 10.822 1.958 11.467L0 12.663V13.499L1.947 14.716C3.027 15.382 3.937 15.933 3.979 15.933C4.021 15.933 4.106 15.837 4.191 15.721C4.318 15.52 4.211 15.435 2.423 14.303C0.72 13.234 0.54 13.086 0.71 12.97C0.816 12.896 1.62 12.398 2.488 11.859C4.467 10.642 4.361 10.726 4.202 10.472C4.139 10.367 4.032 10.272 3.969 10.282H3.968ZM12.652 10.305C12.36 10.303 11.732 10.748 9.852 12.283C9.771 12.476 9.764 12.609 9.801 12.695C9.82567 12.753 9.86867 12.7963 9.93 12.825C9.99 12.855 10.068 12.873 10.154 12.88C10.325 12.895 10.527 12.868 10.69 12.836L10.8 12.811C10.8381 12.7609 10.8874 12.7205 10.944 12.693C11.06 12.629 11.547 12.185 12.034 11.709C12.891 10.841 13.092 10.449 12.743 10.322C12.7147 10.3094 12.6829 10.3036 12.652 10.305ZM14.848 10.908C14.591 10.915 14.128 11.213 13.335 11.846C12.937 12.169 12.685 12.343 12.55 12.379L12.026 12.793C11.829 13.153 11.8 13.376 11.852 13.499C11.865 13.5293 11.8839 13.5568 11.9076 13.5798C11.9313 13.6028 11.9593 13.6209 11.99 13.633C12.0661 13.6643 12.1478 13.6796 12.23 13.678C12.4263 13.6757 12.6213 13.6471 12.81 13.593C12.9081 13.566 13.0052 13.5354 13.101 13.501L13.13 13.489L13.183 13.461C13.283 13.332 13.513 13.089 13.801 12.809C14.711 11.931 15.176 11.307 15.081 11.074C15.038 10.961 14.964 10.904 14.848 10.908ZM12.424 11.988C12.35 11.996 12.184 12.124 11.885 12.386C11.453 12.768 10.982 12.988 10.819 12.89L10.705 12.914C10.539 12.947 10.332 12.974 10.147 12.959C10.0598 12.9539 9.97433 12.9325 9.895 12.896C9.82027 12.8615 9.76058 12.8011 9.727 12.726C9.69 12.636 9.69 12.524 9.732 12.381L9.082 12.915L7.611 14.132V16.105L12.431 12.308C12.4299 12.2664 12.4353 12.2249 12.447 12.185C12.484 12.051 12.482 11.983 12.424 11.989V11.988ZM14.498 12.627C14.425 12.627 14.303 12.73 14.108 12.937C13.843 13.22 13.426 13.494 13.205 13.55L13.171 13.568L13.061 13.61C13.0003 13.6307 12.9243 13.6533 12.833 13.678C12.653 13.727 12.429 13.772 12.229 13.767C12.1346 13.7677 12.0411 13.7494 11.954 13.713C11.8714 13.6794 11.8054 13.6148 11.77 13.533C11.712 13.394 11.735 13.199 11.862 12.922L7.61 16.271V17.476H9.478L13.44 14.364C13.5427 14.2493 13.6983 14.0943 13.907 13.899C14.467 13.38 14.594 13.201 14.594 12.936C14.594 12.73 14.571 12.626 14.498 12.626V12.627ZM15.441 14.577L15.102 14.915C14.912 15.095 14.573 15.317 14.341 15.412L14.295 15.432L14.292 15.437L14.282 15.447C14.273 15.454 14.269 15.455 14.262 15.458C14.1696 15.4936 14.0755 15.5247 13.98 15.551C13.7682 15.6131 13.5502 15.6517 13.33 15.666C13.2259 15.6732 13.1213 15.6641 13.02 15.639C12.9319 15.62 12.8541 15.5686 12.802 15.495C12.7527 15.421 12.741 15.3227 12.767 15.2C12.7873 15.1128 12.8193 15.0287 12.862 14.95L9.665 17.476H13.917L14.425 16.894C15.123 16.08 15.441 15.498 15.441 15V14.577Z" fill="black"/>
</svg>
