<svg width="32" height="32" viewBox="0 0 32 32" fill="none" xmlns="http://www.w3.org/2000/svg">
<path d="M28 10.6667V21.3333C28 23.1014 27.2976 24.7971 26.0474 26.0474C24.7971 27.2976 23.1014 28 21.3333 28H10.6667C8.89856 28 7.20286 27.2976 5.95262 26.0474C4.70238 24.7971 4 23.1014 4 21.3333V10.6667C4 8.89856 4.70238 7.20286 5.95262 5.95262C7.20286 4.70238 8.89856 4 10.6667 4H21.3333C23.1014 4 24.7971 4.70238 26.0474 5.95262C27.2976 7.20286 28 8.89856 28 10.6667Z" stroke="#9A9A9A" stroke-width="1.5" stroke-linecap="round" stroke-linejoin="round"/>
<path d="M13.3333 16C12.5422 16 11.7689 16.2346 11.1111 16.6741C10.4533 17.1136 9.94058 17.7384 9.63783 18.4693C9.33508 19.2002 9.25586 20.0044 9.4102 20.7804C9.56455 21.5563 9.94551 22.269 10.5049 22.8284C11.0643 23.3878 11.7771 23.7688 12.553 23.9231C13.3289 24.0775 14.1332 23.9983 14.8641 23.6955C15.595 23.3928 16.2197 22.8801 16.6592 22.2223C17.0987 21.5645 17.3333 20.7911 17.3333 20V8C17.7773 9.33333 19.4667 12 22.6667 12" stroke="#9A9A9A" stroke-width="1.5" stroke-linecap="round" stroke-linejoin="round"/>
</svg>
